<?xml version="1.0" encoding="utf-8"?>
<!-- Svg Vector Icons : http://www.onlinewebfonts.com/icon -->
<!DOCTYPE svg PUBLIC "-//W3C//DTD SVG 1.1//EN" "http://www.w3.org/Graphics/SVG/1.1/DTD/svg11.dtd">
<svg version="1.1" xmlns="http://www.w3.org/2000/svg" xmlns:xlink="http://www.w3.org/1999/xlink" x="0px" y="0px" viewBox="0 0 1000 1000" enable-background="new 0 0 1000 1000" xml:space="preserve">
<metadata> Svg Vector Icons : http://www.onlinewebfonts.com/icon </metadata>
<g><g transform="translate(0.000000,511.000000) scale(0.100000,-0.100000)"><path d="M6410.4,4994.2c-418.8-65.7-900.4-257.2-1245.2-492.6c-227.2-150.5-520-432.4-689.7-654.1c-191.6-251.8-421.4-730.7-509-1056.4c-62.9-243.6-71.1-322.9-71.1-725.2s8.2-481.7,71.1-725.2c87.6-325.7,317.5-804.6,509-1056.4c169.7-221.7,462.5-503.6,689.7-654.1c246.3-169.7,643.1-347.6,946.9-429.7c238.1-62.9,320.2-71.1,719.8-71.1c399.6,0,481.6,8.2,719.7,71.1c829.2,221.7,1508,758.1,1891.1,1497C9886,1551.5,9897,2512,9472.8,3365.9c-312,634.9-755.3,1070.1-1398.4,1373.8c-372.2,175.1-711.6,254.5-1146.7,268.2C6733.4,5013.4,6498,5007.9,6410.4,4994.2z M7475,4501.6c856.6-227.1,1565.4-938.7,1798-1806.2c87.6-331.1,87.6-922.3,0-1258.9c-232.6-873-938.7-1579.1-1811.7-1811.7c-336.6-87.5-927.8-87.5-1258.9,0c-873,232.6-1579.1,938.7-1811.7,1811.7c-87.6,333.9-87.6,925,0,1258.9c249,936,1031.7,1669.4,1970.4,1847.3C6654,4597.4,7187.6,4578.2,7475,4501.6z"/><path d="M5778.2,3245.5c-123.1-54.7-191.6-164.2-191.6-306.5c0-114.9,13.7-145,90.3-221.7c76.7-76.6,106.7-90.3,224.4-90.3c117.6,0,147.8,13.7,224.4,90.3c76.7,76.6,90.3,106.7,90.3,224.4c0,115-13.7,147.8-84.9,221.7C6041,3253.7,5879.5,3289.3,5778.2,3245.5z"/><path d="M7639.2,3245.5c-123.2-54.7-191.6-164.2-191.6-306.5c0-114.9,13.7-145,90.3-221.7c76.7-76.6,106.7-90.3,224.4-90.3c117.6,0,147.8,13.7,224.4,90.3c76.7,76.6,90.3,106.7,90.3,224.4c0,115-13.7,147.8-84.8,221.7C7901.9,3253.7,7740.4,3289.3,7639.2,3245.5z"/><path d="M6394,1666.4c-98.5-19.2-281.9-87.6-410.5-150.5c-295.6-145-602.1-443.3-725.2-703.3c-73.9-161.5-76.7-177.9-38.3-246.3c21.9-41,71.1-90.3,112.2-112.2c117.7-65.7,213.5-16.4,306.5,161.5c158.7,295.6,459.8,528.2,796.4,615.8c183.3,46.5,569.2,52,752.6,10.9c339.4-76.6,678.7-333.9,837.4-626.7c93.1-177.9,188.8-227.1,306.5-161.5c41,21.9,90.3,71.2,112.2,112.2c38.3,68.4,35.5,84.8-38.3,246.3c-123.1,262.7-429.7,558.3-725.2,703.3c-128.7,63-317.5,131.4-424.2,153.3C7017.9,1718.4,6629.3,1718.4,6394,1666.4z"/><path d="M8465.7-731c-43.8-41-79.4-117.7-98.5-218.9c-54.7-254.5-183.3-478.9-402.3-697.9c-221.7-224.4-506.3-380.4-741.7-410.5l-139.6-13.7l-30.1,186.1c-38.3,210.7-128.6,391.3-243.6,470.7c-41.1,30.1-290.1,150.5-552.8,268.2c-407.8,180.6-506.3,213.5-656.8,224.4c-229.9,11-4969.9-755.3-5128.6-829.2c-134.1-65.7-240.8-227.1-254.5-391.3c-16.4-169.7,380.4-2361.8,443.4-2457.6c57.5-87.6,188.8-166.9,312-188.8c63-8.2,706.1,84.8,1781.6,260c925,150.5,2033.4,331.1,2463,399.6c1023.5,164.2,987.9,147.8,1477.8,695.1c432.4,484.4,476.2,555.5,478.9,771.8v153.2l117.6,19.2c719.8,106.7,1450.4,853.9,1505.2,1535.3c10.9,156,8.2,169.6-62.9,224.4C8638.1-654.3,8547.8-654.3,8465.7-731z M6098.4-1552c235.3-106.7,446.1-213.4,468-238.1c21.9-24.6,46.5-82.1,54.7-128.6c16.5-84.9,16.5-84.9-95.8-82.1c-131.3,2.7-213.4-79.4-213.4-213.4c0-112.2,82.1-191.6,246.3-238.1c145-38.3,191.6-87.6,191.6-194.3c0-57.5-76.6-161.4-344.8-459.8c-188.8-210.7-372.2-402.3-405-424.2c-35.6-24.6-684.2-142.3-1579.1-287.4c-834.7-136.8-1932.1-314.7-2443.9-399.6c-509-82.1-933.2-142.3-941.4-134.1c-21.9,19.2-385.9,2030.6-388.6,2129.2c0,41.1,16.4,82.1,35.6,90.3c95.8,35.6,4857.6,796.4,4917.9,785.4C5638.7-1354.9,5863.1-1448,6098.4-1552z"/><path d="M5504.6-2017.2c-8.2-35.6-32.9-191.6-54.7-347.5c-19.2-156-43.8-287.4-49.3-295.6c-8.2-5.5-87.5,117.7-180.6,276.4c-93,158.7-180.6,295.6-194.3,303.8c-46.5,27.4-134.1-13.7-150.5-71.1c-13.7-38.3,46.5-156,216.2-418.7c128.6-199.8,235.4-385.9,235.4-416c0-82.1-79.4-175.2-147.8-175.2c-123.2,0-169.7-117.7-63-164.2c87.6-41.1,287.4,24.6,355.8,114.9c71.2,95.8,254.5,1160.4,208,1215.1C5627.7-1932.4,5521-1948.8,5504.6-2017.2z"/><path d="M4475.6-2227.9c-60.2-82.1-60.2-82.1-106.7-24.6c-52,65.7-150.5,49.3-169.7-27.4c-13.7-43.8,112.2-708.8,150.5-807.3c21.9-57.5,136.8-60.2,183.4-5.5c27.4,32.9,27.4,84.9-10.9,268.2c-73.9,383.1-52,454.3,150.5,481.7c84.8,10.9,123.1,30.1,128.6,65.7c16.4,79.4-46.5,128.6-161.5,128.6C4554.9-2148.6,4522.1-2165,4475.6-2227.9z"/><path d="M3802.3-2318.3c-35.6-16.4-68.4-52-76.6-79.3c-21.9-62.9-57.5-68.4-79.4-11c-19.2,54.7-150.5,52-172.4-5.5c-16.4-43.8,84.8-634.9,134.1-780c30.1-87.5,87.6-114.9,161.5-76.6c62.9,35.6,65.7,79.4,8.2,374.9c-54.7,298.3-27.4,372.2,150.5,391.3c142.3,16.4,205.3,84.9,139.6,150.5C4010.3-2299.1,3876.2-2279.9,3802.3-2318.3z"/><path d="M1637.6-2397.6c-257.3-49.3-407.8-213.5-380.4-416c27.4-194.3,194.3-292.8,498.1-292.8c180.6,0,314.7-62.9,314.7-147.8c0-104-27.4-150.5-112.2-194.3c-136.8-71.2-235.4-52-361.2,68.4c-139.6,136.8-218.9,139.6-232.6,5.5c-8.2-71.1,8.2-106.7,82.1-180.6c186.1-186.1,541.9-158.8,758.1,54.7c117.7,117.7,117.7,123.1,106.7,270.9c-19.1,243.6-156,342.1-473.4,342.1c-309.2,0-443.3,104-309.2,238.1c35.6,35.6,109.5,71.1,164.2,79.4c84.8,13.7,112.2,2.7,208-84.9c82.1-71.1,128.6-95.8,166.9-82.1c76.6,24.6,98.5,112.2,46.5,191.6C2023.5-2408.6,1853.8-2353.8,1637.6-2397.6z"/><path d="M2683-2553.6c-279.1-131.4-336.6-506.3-117.7-758.1c199.8-224.4,618.5-164.2,747.1,106.7c93,197,19.2,503.5-153.3,629.4C3052.5-2498.9,2825.3-2487.9,2683-2553.6z M3008.7-2726c84.8-65.7,139.6-240.8,114.9-369.5c-32.8-175.2-246.3-235.4-369.5-106.7c-76.6,79.4-106.7,325.7-54.7,421.5C2759.7-2665.8,2902-2641.2,3008.7-2726z"/></g></g>
</svg>